@startuml StandardDoc_StandardDocument
/'
Diagram:        StandardDoc_StandardDocument
DateCreate:     22/08/2018
Description:    Metanorma StandardDocument ("StanDoc") is a family of document models that forms the basis of Metanorma IsoDoc, which is used to represent
                ISO Standards and similarly structured standards. It itself is an instantiation of BasicDocument (BasicDoc)
                It is one of the document models that Selagraph operates on.
                Metanorma StandardDocument itself is a document model can form the basis of multiple standard document types, including:

                - ISO Standards
                - CSD Standards
                - Chinese Standards (GB and family)

                The Relaton Bibliography UML models used within these models are located here: Relaton BibModels

Hystory of changes:
> DD/MM/YYYY
    - 31/10/2019: example/role
    - 10/01/2020: StandardNoteBlock
    - 14/01/2020: ReferenceToTerm
    - 04/02/2020: ReferenceToTerm
    - 04/02/2020: ReferenceToTerm
    - 17/09/2020: versioning
    - 15/02/2021: MiscContainer
    - 16/02/2021: Index
'/

'******* CONFIGURATION ************************************************
!include style.uml.inc


'******* CLASS DEFINITION *********************************************
class BasicDocument <<BasicDocument>> {

}

class ReferenceElement <<BasicDocument>> {
}

class ReferenceToTerm {
   +source: ReferenceToTermSource
   +term: String[0..*]
}

class ReferenceToCitationElement <<BasicDocument>> {
}
class ReferenceToIdElement <<BasicDocument>> {
}

class ReferenceToTermbase {
    +termbase: String
    +target: String[0..1]
}

class PageBreakElement <<BasicDocument>>{
}

class StandardPageBreakElement {
   +orientation: OrientationType[0..1]
}

enum OrientationType <<enumeration>>{
    portrait
    landscape
}

class StandardDocument {
    +bibdata: StandardBibData
    +misc: MiscContainer[0..1]
    +boilerplate: BoilerplateType[0..1]
    +preface: StandardHierarchicalSection[0..*]
    +sections: StandardHierarchicalSection[1..*]
    +annex: StandardHierarchicalSection[0..*]
    +bibliography: StandardReferencesSection[0..*]
    +index: StandardHierarchicalSection[0..*]
    +type: StandardDocumentType
    +version: String
}

class MiscContainer {
    +element: Any[0..*]
}

class BoilerplateType {
    + copyright: HierarchicalSection[0..1]
    + license: HierarchicalSection[0..1]
    + legal: HierarchicalSection[0..1]
    + feedback: HierarchicalSection[0..1]
}

enum StandardDocumentType <<enumeration>> {
     semantic
     presentation
}


'******* NOTES ********************************************************


'******* CLASS RELATIONS **********************************************
BasicDocument <|-- StandardDocument
StandardDocument <-- StandardDocumentType
StandardDocument <-- BoilerplateType
StandardDocument <-- MiscContainer
BasicDocument <-- ReferenceElement
BasicDocument <-- PageBreakElement
PageBreakElement <|-- StandardPageBreakElement
ReferenceElement <|-- ReferenceToTerm
ReferenceElement <|-- ReferenceToTermbase
ReferenceToTerm <-- ReferenceToTermSource
ReferenceToTermSource <|-- ReferenceToCitationElement
ReferenceToTermSource <|-- ReferenceToIdElement
ReferenceToTermSource <|-- ReferenceToTermbase
StandardPageBreakElement <-- OrientationType

@enduml
